# Blender 4.0.2
# www.blender.org
o sphere_flat
v 0.543043 0.809017 -0.224936
v 0.543043 0.809017 0.224936
v 0.224936 0.809017 0.543043
v -0.224936 0.809017 0.543043
v -0.543043 0.809017 0.224936
v -0.543043 0.809017 -0.224936
v -0.224936 0.809017 -0.543043
v 0.224936 0.809017 -0.543043
v 0.878662 0.309017 -0.363954
v 0.878662 0.309017 0.363954
v 0.363954 0.309017 0.878662
v -0.363954 0.309017 0.878662
v -0.878662 0.309017 0.363954
v -0.878662 0.309017 -0.363954
v -0.363954 0.309017 -0.878662
v 0.363954 0.309017 -0.878662
v 0.878662 -0.309017 -0.363954
v 0.878662 -0.309017 0.363954
v 0.363954 -0.309017 0.878662
v -0.363954 -0.309017 0.878662
v -0.878662 -0.309017 0.363954
v -0.878662 -0.309017 -0.363954
v -0.363954 -0.309017 -0.878662
v 0.363954 -0.309017 -0.878662
v 0.543043 -0.809017 -0.224936
v 0.543043 -0.809017 0.224936
v 0.224936 -0.809017 0.543043
v -0.224936 -0.809017 0.543043
v -0.543043 -0.809017 0.224936
v -0.543043 -0.809017 -0.224936
v -0.224936 -0.809017 -0.543043
v 0.224936 -0.809017 -0.543043
v -0.000000 1.000000 -0.000000
v -0.000000 -1.000000 0.000000
vn 0.5789 0.5205 -0.6276
vn 0.5705 0.5625 -0.5985
vn 0.5823 0.5740 -0.5757
vn 0.6130 0.5109 -0.6026
vn 0.3018 0.9523 0.0457
vn 0.3318 0.9434 -0.0000
vn 0.3188 0.9463 -0.0537
vn 0.8596 0.5109 -0.0074
vn 0.8266 0.5625 -0.0198
vn 0.8202 0.5720 0.0106
vn 0.8532 0.5205 0.0344
vn 0.1815 0.9569 0.2266
vn 0.2346 0.9434 0.2346
vn 0.2635 0.9463 0.1874
vn 0.6130 0.5109 0.6026
vn 0.5985 0.5625 0.5705
vn 0.5724 0.5720 0.5875
vn 0.5573 0.5403 0.6305
vn -0.0318 0.9569 0.2886
vn -0.0000 0.9434 0.3318
vn 0.0537 0.9463 0.3188
vn 0.0074 0.5109 0.8596
vn 0.0198 0.5625 0.8266
vn -0.0106 0.5720 0.8202
vn -0.0518 0.5403 0.8399
vn -0.2266 0.9569 0.1815
vn -0.2346 0.9434 0.2346
vn -0.1874 0.9463 0.2635
vn -0.6026 0.5109 0.6130
vn -0.5705 0.5625 0.5985
vn -0.5875 0.5720 0.5724
vn -0.6305 0.5403 0.5573
vn -0.2886 0.9569 -0.0318
vn -0.3318 0.9434 -0.0000
vn -0.3188 0.9463 0.0537
vn -0.8596 0.5109 0.0074
vn -0.8266 0.5625 0.0198
vn -0.8202 0.5720 -0.0106
vn -0.8399 0.5403 -0.0518
vn -0.1815 0.9569 -0.2266
vn -0.2346 0.9434 -0.2346
vn -0.2635 0.9463 -0.1874
vn -0.6130 0.5109 -0.6026
vn -0.5985 0.5625 -0.5705
vn -0.5724 0.5720 -0.5875
vn -0.5573 0.5403 -0.6305
vn 0.0318 0.9569 -0.2886
vn -0.0000 0.9434 -0.3318
vn -0.0318 0.9569 -0.2886
vn -0.0518 0.5403 -0.8399
vn -0.0208 0.5572 -0.8301
vn 0.0106 0.5720 -0.8202
vn 0.0518 0.5403 -0.8399
vn 0.2635 0.9463 -0.1874
vn 0.2346 0.9434 -0.2346
vn 0.1811 0.9523 -0.2457
vn 0.7017 -0.0194 -0.7122
vn 0.7017 0.0194 -0.7122
vn 0.7173 0.0147 -0.6966
vn 0.7216 -0.0000 -0.6923
vn 0.9998 -0.0194 -0.0074
vn 0.9998 0.0194 -0.0074
vn 0.9998 0.0074 0.0194
vn 0.9998 -0.0074 0.0194
vn 0.7122 -0.0194 0.7017
vn 0.7122 0.0194 0.7017
vn 0.6932 0.0074 0.7207
vn 0.6932 -0.0074 0.7207
vn 0.0074 -0.0194 0.9998
vn 0.0074 0.0194 0.9998
vn -0.0194 0.0074 0.9998
vn -0.0194 -0.0074 0.9998
vn -0.7017 -0.0194 0.7122
vn -0.7017 0.0194 0.7122
vn -0.7207 0.0074 0.6932
vn -0.7207 -0.0074 0.6932
vn -0.9998 -0.0194 0.0074
vn -0.9998 0.0194 0.0074
vn -0.9998 0.0074 -0.0194
vn -0.9998 -0.0074 -0.0194
vn -0.7122 -0.0194 -0.7017
vn -0.7122 0.0194 -0.7017
vn -0.6932 0.0074 -0.7207
vn -0.6932 -0.0074 -0.7207
vn -0.0000 -0.0208 -0.9998
vn -0.0147 0.0147 -0.9998
vn 0.0194 0.0074 -0.9998
vn 0.0194 -0.0074 -0.9998
vn 0.5705 -0.5625 -0.5985
vn 0.6026 -0.5109 -0.6130
vn 0.6276 -0.5205 -0.5789
vn 0.5934 -0.5679 -0.5704
vn 0.8266 -0.5625 -0.0198
vn 0.8596 -0.5109 -0.0074
vn 0.8399 -0.5403 0.0518
vn 0.8202 -0.5720 0.0106
vn 0.5985 -0.5625 0.5705
vn 0.6130 -0.5109 0.6026
vn 0.5573 -0.5403 0.6305
vn 0.5724 -0.5720 0.5875
vn 0.0198 -0.5625 0.8266
vn 0.0074 -0.5109 0.8596
vn -0.0518 -0.5403 0.8399
vn -0.0106 -0.5720 0.8202
vn -0.5705 -0.5625 0.5985
vn -0.6026 -0.5109 0.6130
vn -0.6305 -0.5403 0.5573
vn -0.5875 -0.5720 0.5724
vn -0.8266 -0.5625 0.0198
vn -0.8596 -0.5109 0.0074
vn -0.8399 -0.5403 -0.0518
vn -0.8202 -0.5720 -0.0106
vn -0.5985 -0.5625 -0.5705
vn -0.6130 -0.5109 -0.6026
vn -0.5573 -0.5403 -0.6305
vn -0.5724 -0.5720 -0.5875
vn -0.0162 -0.5679 -0.8229
vn -0.0344 -0.5205 -0.8532
vn 0.0518 -0.5403 -0.8399
vn 0.0106 -0.5720 -0.8202
vn 0.1874 -0.9463 -0.2635
vn 0.2346 -0.9434 -0.2346
vn 0.2457 -0.9523 -0.1811
vn 0.3188 -0.9463 -0.0537
vn 0.3318 -0.9434 -0.0000
vn 0.2886 -0.9569 0.0318
vn 0.2635 -0.9463 0.1874
vn 0.2346 -0.9434 0.2346
vn 0.1815 -0.9569 0.2266
vn 0.0537 -0.9463 0.3188
vn -0.0000 -0.9434 0.3318
vn -0.0318 -0.9569 0.2886
vn -0.1874 -0.9463 0.2635
vn -0.2346 -0.9434 0.2346
vn -0.2266 -0.9569 0.1815
vn -0.3188 -0.9463 0.0537
vn -0.3318 -0.9434 -0.0000
vn -0.2886 -0.9569 -0.0318
vn -0.2635 -0.9463 -0.1874
vn -0.2346 -0.9434 -0.2346
vn -0.1815 -0.9569 -0.2266
vn -0.0457 -0.9523 -0.3018
vn -0.0000 -0.9434 -0.3318
vn 0.0318 -0.9569 -0.2886
s 0
f 1//1 9//2 16//3 8//4
f 1//5 33//6 2//7
f 2//8 10//9 9//10 1//11
f 2//12 33//13 3//14
f 3//15 11//16 10//17 2//18
f 3//19 33//20 4//21
f 4//22 12//23 11//24 3//25
f 4//26 33//27 5//28
f 5//29 13//30 12//31 4//32
f 5//33 33//34 6//35
f 6//36 14//37 13//38 5//39
f 6//40 33//41 7//42
f 7//43 15//44 14//45 6//46
f 7//47 33//48 8//49
f 8//50 16//51 15//52 7//53
f 8//54 33//55 1//56
f 9//57 17//58 24//59 16//60
f 10//61 18//62 17//63 9//64
f 11//65 19//66 18//67 10//68
f 12//69 20//70 19//71 11//72
f 13//73 21//74 20//75 12//76
f 14//77 22//78 21//79 13//80
f 15//81 23//82 22//83 14//84
f 16//85 24//86 23//87 15//88
f 17//89 25//90 32//91 24//92
f 18//93 26//94 25//95 17//96
f 19//97 27//98 26//99 18//100
f 20//101 28//102 27//103 19//104
f 21//105 29//106 28//107 20//108
f 22//109 30//110 29//111 21//112
f 23//113 31//114 30//115 22//116
f 24//117 32//118 31//119 23//120
f 25//121 34//122 32//123
f 26//124 34//125 25//126
f 27//127 34//128 26//129
f 28//130 34//131 27//132
f 29//133 34//134 28//135
f 30//136 34//137 29//138
f 31//139 34//140 30//141
f 32//142 34//143 31//144
